<?xml version="1.0" standalone="no"?>
<!DOCTYPE svg PUBLIC "-//W3C//DTD SVG 20010904//EN"
 "http://www.w3.org/TR/2001/REC-SVG-20010904/DTD/svg10.dtd">
<svg version="1.0" xmlns="http://www.w3.org/2000/svg"
 width="70.000000pt" height="70.000000pt" viewBox="0 0 70.000000 70.000000"
 preserveAspectRatio="xMidYMid meet">
<metadata>
Created by potrace 1.14, written by Peter Selinger 2001-2017
</metadata>
<g transform="translate(0.000000,70.000000) scale(0.100000,-0.100000)"
fill="#000000" stroke="none">
<path d="M0 639 c0 -49 3 -60 14 -56 15 6 233 -207 250 -244 7 -14 15 -18 30
-13 11 4 96 85 189 180 93 96 176 174 184 174 12 0 14 -49 11 -340 -2 -267 0
-340 10 -340 9 0 12 77 12 350 l0 350 -350 0 -350 0 0 -61z"/>
<path d="M2 288 c-1 -165 2 -288 7 -288 11 0 19 78 9 88 -4 4 -9 115 -11 247
l-2 240 -3 -287z"/>
</g>
</svg>
